# xmcd
#
# Track frame offsets:
#	182
#	18417
#	35427
#	52412
#	74657
#	116340
#	146310
#	160312
#	180585
#	196542
#
# Disc length: 2862 seconds
#
# Revision: 6
# Processed by: cddbd v1.5.2PL0 Copyright (c) Steve Scherf et al.
# Submitted via: SynApp - FreeCDDB Version: 2.5
#
DISCID=870b2c0a
DTITLE=The Rolling Stones - `Get Yer Ya-Ya's Out!´
DYEAR=1970
DGENRE=Rock/Blues
TTITLE0=Jumpin' Jack Flash
TTITLE1=Carol
TTITLE2=Stray Cat Blues
TTITLE3=Love in Vain
TTITLE4=Midnight Rambler
TTITLE5=Sympathy For The Devil
TTITLE6=Live With Me
TTITLE7=Little Queenie
TTITLE8=Honky Tonk Women
TTITLE9=Street Fighting Man
EXTD=
EXTT0=
EXTT1=
EXTT2=
EXTT3=
EXTT4=
EXTT5=
EXTT6=
EXTT7=
EXTT8=
EXTT9=
PLAYORDER=
